# xmcd
#
# Track frame offsets:
#	150
#	12985
#	24460
#	40820
#	53075
#	73671
#	86291
#	98401
#	111020
#	124924
#	134827
#	148640
#	159931
#	171848
#	184286
#	196598
#	222460
#	240278
#	257131
#	272178
#
# Disc length: 3877 seconds
#
# Revision: 0
# Processed by: cddbd v1.5.2PL0 Copyright (c) Steve Scherf et al.
# Submitted via: audiograbber 1.83.01
#
DISCID=160f2314
DTITLE=MIXED - VOLUME 7
DYEAR=1900
DGENRE=
TTITLE0=LOVE ME
TTITLE1=HERES A QUARTER
TTITLE2=FAST HAS YOU
TTITLE3=SWEET TALKINH GUY
TTITLE4=GIVE ME ONE REASON
TTITLE5=SUSPICION
TTITLE6=BREAKING UP
TTITLE7=YOURE SIXTEEN
TTITLE8=PROUD MARY
TTITLE9=ITS NOT UNUSUAL
TTITLE10=WHAT I LIKE
TTITLE11=TEARS ON MY PILLOW
TTITLE12=IVE GOTTA BE ME
TTITLE13=THE TWELFTH
TTITLE14=ITS ALL A GAME
TTITLE15=COPACABANA
TTITLE16=STILL HOLDING ON
TTITLE17=I CELEBRATE MY LOVE
TTITLE18=KEY LARGO
TTITLE19=I BELIEVE IN YOU AND ME
EXTD=
EXTT0=
EXTT1=
EXTT2=
EXTT3=
EXTT4=
EXTT5=
EXTT6=
EXTT7=
EXTT8=
EXTT9=
EXTT10=
EXTT11=
EXTT12=
EXTT13=
EXTT14=
EXTT15=
EXTT16=
EXTT17=
EXTT18=
EXTT19=
PLAYORDER=
